HIERARCHY
ROOT Hips
{
  OFFSET 53.67 58.924 -14.2539
  CHANNELS 6 Xposition Yposition Zposition Zrotation Xrotation Yrotation
  JOINT spine
  {
    OFFSET 0 7.4756 0.429885
    CHANNELS 3 Zrotation Xrotation Yrotation
    JOINT spine1
    {
      OFFSET 0 9.92301 0
      CHANNELS 3 Zrotation Xrotation Yrotation
      JOINT spine2
      {
        OFFSET 0 9.50804 0
        CHANNELS 3 Zrotation Xrotation Yrotation
        JOINT Neck
        {
          OFFSET 0 24.4111 1.16384
          CHANNELS 3 Zrotation Xrotation Yrotation
          JOINT Head
          {
            OFFSET 0 7.37523 0
            CHANNELS 3 Zrotation Xrotation Yrotation
            End Site
            {
              OFFSET 0 17.8522 -5.88741
            }
          }
        }
        JOINT RightShoulder
        {
          OFFSET -4.00356 10.2679 -0.557468
          CHANNELS 3 Zrotation Xrotation Yrotation
          JOINT RightArm
          {
            OFFSET 0 13.4673 0
            CHANNELS 3 Zrotation Xrotation Yrotation
            JOINT RightArmRoll
            {
              OFFSET 0 6.79858 0
              CHANNELS 3 Zrotation Xrotation Yrotation
              JOINT RightForeArm
              {
                OFFSET 0 19.8018 0
                CHANNELS 3 Zrotation Xrotation Yrotation
                JOINT RightForeArmRoll
                {
                  OFFSET 0 7.62905 0
                  CHANNELS 3 Zrotation Xrotation Yrotation
                  JOINT RightHand
                  {
                    OFFSET 0 15.3098 0
                    CHANNELS 3 Zrotation Xrotation Yrotation
                    End Site
                    {
                      OFFSET 0 0 0
                    }
                  }
                }
              }
            }
          }
        }
        JOINT LeftShoulder
        {
          OFFSET 4.00356 10.2679 -0.557468
          CHANNELS 3 Zrotation Xrotation Yrotation
          JOINT LeftArm
          {
            OFFSET 0 13.4673 0
            CHANNELS 3 Zrotation Xrotation Yrotation
            JOINT LeftArmRoll
            {
              OFFSET 0 6.79857 0
              CHANNELS 3 Zrotation Xrotation Yrotation
              JOINT LeftForeArm
              {
                OFFSET 0 19.8018 0
                CHANNELS 3 Zrotation Xrotation Yrotation
                JOINT LeftForeArmRoll
                {
                  OFFSET 0 7.62905 0
                  CHANNELS 3 Zrotation Xrotation Yrotation
                  JOINT LeftHand
                  {
                    OFFSET 0 15.3098 0
                    CHANNELS 3 Zrotation Xrotation Yrotation
                    End Site
                    {
                      OFFSET 0 0 0
                    }
                  }
                }
              }
            }
          }
        }
      }
    }
  }
  JOINT RightUpLeg
  {
    OFFSET -6.62609 -1.21505 -1.01927
    CHANNELS 3 Zrotation Xrotation Yrotation
    JOINT RightUpLegRoll
    {
      OFFSET 0 17.9517 0
      CHANNELS 3 Zrotation Xrotation Yrotation
      JOINT RightLeg
      {
        OFFSET 0 -22.2304 0
        CHANNELS 3 Zrotation Xrotation Yrotation
        JOINT RightLegRoll
        {
          OFFSET 0 22.3032 0
          CHANNELS 3 Zrotation Xrotation Yrotation
          JOINT RightFoot
          {
            OFFSET 0 18.5636 0
            CHANNELS 3 Zrotation Xrotation Yrotation
            JOINT RightToeBase
            {
              OFFSET 0 15.5183 0
              CHANNELS 3 Zrotation Xrotation Yrotation
              End Site
              {
                OFFSET 0.00657761 7.51539 -0.866262
              }
            }
          }
        }
      }
    }
  }
  JOINT LeftUpLeg
  {
    OFFSET 6.62609 -1.21505 -1.01927
    CHANNELS 3 Zrotation Xrotation Yrotation
    JOINT LeftUpLegRoll
    {
      OFFSET 0 17.9518 0
      CHANNELS 3 Zrotation Xrotation Yrotation
      JOINT LeftLeg
      {
        OFFSET 0 22.2303 0
        CHANNELS 3 Zrotation Xrotation Yrotation
        JOINT LeftLegRoll
        {
          OFFSET 0 22.5093 0
          CHANNELS 3 Zrotation Xrotation Yrotation
          JOINT LeftFoot
          {
            OFFSET 0 18.3575 0
            CHANNELS 3 Zrotation Xrotation Yrotation
            JOINT LeftToeBase
            {
              OFFSET 0 15.5183 0
              CHANNELS 3 Zrotation Xrotation Yrotation
              End Site
              {
                OFFSET -0.029478 7.51538 -0.866263
              }
            }
          }
        }
      }
    }
  }
}
MOTION
Frames: 6
Frame Time: 0.00208333
51.6229 58.1658 -17.2527 -0.238485 -15.9859 3.11914 0.389671 3.90107 -0.822435 0.856491 11.7986 -1.73968 0.881238 13.4433 -1.75933 -12.6013 4.87629 0.518151 12.4261 2.06261 -0.956829 66.4138 -2.6165 -2.30712 110.456 40.1517 6.77023 3.5707e-007 -1.77474e-006 -2.6986e-006 6.46832 4.18551 -1.42598 1.8397e-007 3.08484e-006 -3.00509 8.02891 -4.95145 0.697693 -71.3766 -6.22655 4.44894 -101.681 36.1216 -14.66 -8.34698e-007 2.93876e-006 2.9132e-006 -0.732486 0.0111381 0.893764 -1.07648e-005 -3.49335e-006 3.02447 -8.03024 -4.95139 -0.697624 -161.278 68.2341 -11.9291 -180 7.0119e-015 177.879 -128.957 82.309 128.628 -6.21683e-008 -2.57407e-006 2.34547 -17.33 64.8802 17.216 8.13971 25.2325 -3.48911 -166.69 67.4809 -19.0623 4.54188e-006 -4.6773e-006 -1.54072 21.5447 -80.6093 22.6904 5.31001e-006 -1.63567e-006 -1.70606 14.9082 60.2553 -14.6638 -8.14385 25.2323 3.49087 
51.6271 58.1726 -17.2544 -0.247559 -16.135 3.12511 0.393087 3.90949 -0.825191 0.864016 11.8154 -1.74748 0.888897 13.4601 -1.7673 -12.5957 5.00378 0.531507 12.423 2.06413 -0.956691 66.4698 -2.58716 -2.29658 110.336 40.13 6.87294 3.5707e-007 -1.77474e-006 -2.6986e-006 6.45207 4.00935 -1.4092 1.8397e-007 3.08484e-006 -3.00509 8.02891 -4.95145 0.697693 -71.3601 -6.22815 4.44899 -101.715 36.0524 -14.6776 -8.34698e-007 2.93876e-006 2.9132e-006 -0.723461 0.0105537 0.893717 -1.07648e-005 -3.49335e-006 3.02438 -8.03024 -4.95139 -0.697624 -161.362 68.0939 -11.8257 -180 7.01189e-015 177.875 -129.02 82.3139 128.69 -6.21683e-008 -2.57407e-006 2.34383 -17.3285 64.8797 17.2159 8.13971 25.2325 -3.48911 -166.702 67.3246 -19.047 4.54188e-006 -4.6773e-006 -1.5416 21.4407 -80.5968 22.5907 5.31001e-006 -1.63567e-006 -1.70494 14.907 60.256 -14.6644 -8.14378 25.2323 3.49084 
51.6357 58.1788 -17.2654 -0.256118 -16.2847 3.13068 0.396472 3.91791 -0.827983 0.871474 11.8321 -1.75534 0.896491 13.4768 -1.77533 -12.592 5.13356 0.544902 12.4204 2.06292 -0.956739 66.5245 -2.55745 -2.28575 110.219 40.109 6.98003 3.5707e-007 -1.77474e-006 -2.6986e-006 6.43206 3.82767 -1.392 1.8397e-007 3.08484e-006 -3.00509 8.02891 -4.95145 0.697693 -71.3455 -6.2281 4.44835 -101.746 35.9819 -14.6976 -8.34698e-007 2.93876e-006 2.9132e-006 -0.714493 0.00995234 0.893713 -1.07648e-005 -3.49335e-006 3.02429 -8.03024 -4.95139 -0.697624 -161.446 67.9526 -11.7212 -180 7.01187e-015 177.872 -129.078 82.3191 128.746 -6.21683e-008 -2.57407e-006 2.34218 -17.3268 64.8788 17.2155 8.13972 25.2325 -3.48911 -166.715 67.1679 -19.0309 4.54188e-006 -4.6773e-006 -1.54253 21.3408 -80.5848 22.4946 5.31001e-006 -1.63567e-006 -1.70379 14.9058 60.2566 -14.6649 -8.14371 25.2323 3.49081 
51.6446 58.1914 -17.2733 -0.264156 -16.435 3.13593 0.399817 3.92633 -0.83076 0.878833 11.8489 -1.76311 0.903984 13.4936 -1.78327 -12.5896 5.26523 0.558058 12.4178 2.05938 -0.957154 66.5782 -2.52764 -2.2748 110.103 40.0884 7.09162 3.5707e-007 -1.77474e-006 -2.6986e-006 6.40837 3.64211 -1.37459 1.8397e-007 3.08484e-006 -3.00509 8.02891 -4.95145 0.697693 -71.3326 -6.22647 4.44704 -101.774 35.9106 -14.7195 -8.34698e-007 2.93876e-006 2.9132e-006 -0.705632 0.00935021 0.893743 -1.07648e-005 -3.49335e-006 3.0242 -8.03024 -4.95139 -0.697624 -161.532 67.8099 -11.6154 -180 7.01186e-015 177.869 -129.132 82.3246 128.798 -6.21683e-008 -2.57407e-006 2.34051 -17.325 64.8777 17.2149 8.13973 25.2325 -3.48912 -166.729 67.011 -19.0135 4.54188e-006 -4.6773e-006 -1.54348 21.2456 -80.5733 22.403 5.31001e-006 -1.63567e-006 -1.70262 14.9046 60.2571 -14.6654 -8.14364 25.2323 3.49078 
51.6455 58.1945 -17.2832 -0.271664 -16.5859 3.14092 0.403115 3.9348 -0.833469 0.886061 11.8657 -1.77066 0.911343 13.5104 -1.79099 -12.5877 5.3984 0.570692 12.4146 2.0539 -0.958113 66.6311 -2.49798 -2.26387 109.989 40.0676 7.20783 3.5707e-007 -1.77474e-006 -2.6986e-006 6.38109 3.4543 -1.35716 1.8397e-007 3.08484e-006 -3.00508 8.02891 -4.95145 0.697693 -71.3207 -6.22334 4.44505 -101.8 35.8386 -14.7427 -8.34698e-007 2.93876e-006 2.9132e-006 -0.69693 0.00876357 0.893797 -1.07648e-005 -3.49335e-006 3.02411 -8.03024 -4.95139 -0.697624 -161.619 67.6657 -11.5083 -180 7.01184e-015 177.866 -129.182 82.3303 128.847 -6.21683e-008 -2.57407e-006 2.3388 -17.323 64.8764 17.2142 8.13973 25.2325 -3.48912 -166.744 66.8538 -18.9946 4.54188e-006 -4.6773e-006 -1.54448 21.156 -80.5627 22.3164 5.31001e-006 -1.63567e-006 -1.70143 14.9034 60.2575 -14.6659 -8.14357 25.2323 3.49075 
51.6523 58.2 -17.2802 -0.278635 -16.7373 3.14572 0.406357 3.94333 -0.836058 0.893127 11.8827 -1.77787 0.918535 13.5274 -1.79836 -12.5855 5.53264 0.582524 12.4105 2.04687 -0.959795 66.6837 -2.46872 -2.25313 109.877 40.0461 7.32877 3.5707e-007 -1.77474e-006 -2.6986e-006 6.35029 3.26587 -1.33992 1.8397e-007 3.08484e-006 -3.00508 8.02891 -4.95145 0.697693 -71.3093 -6.21881 4.44242 -101.824 35.7663 -14.7664 -8.34698e-007 2.93876e-006 2.9132e-006 -0.68844 0.00820864 0.893865 -1.07648e-005 -3.49335e-006 3.02402 -8.03024 -4.95139 -0.697624 -161.707 67.5199 -11.3998 -180 7.01183e-015 177.862 -129.231 82.3361 128.896 -6.21683e-008 -2.57407e-006 2.33704 -17.321 64.875 17.2135 8.13974 25.2325 -3.48912 -166.76 66.6964 -18.9739 4.54188e-006 -4.6773e-006 -1.5455 21.0727 -80.553 22.2356 5.31001e-006 -1.63567e-006 -1.70021 14.9021 60.2578 -14.6663 -8.1435 25.2323 3.49072 
